<?xml version="1.0" encoding="UTF-8"?>
<svg xmlns="http://www.w3.org/2000/svg" xmlns:xlink="http://www.w3.org/1999/xlink" width="282.927" height="144.542" viewBox="0 0 282.927 144.542">
<defs>
<g>
<g id="glyph-0-0">
<path d="M 6.5625 -2.296875 C 6.734375 -2.296875 6.921875 -2.296875 6.921875 -2.5 C 6.921875 -2.6875 6.734375 -2.6875 6.5625 -2.6875 L 1.171875 -2.6875 C 1 -2.6875 0.828125 -2.6875 0.828125 -2.5 C 0.828125 -2.296875 1 -2.296875 1.171875 -2.296875 Z M 6.5625 -2.296875 "/>
</g>
<g id="glyph-1-0">
<path d="M 4.078125 -2.296875 L 6.859375 -2.296875 C 7 -2.296875 7.1875 -2.296875 7.1875 -2.5 C 7.1875 -2.6875 7 -2.6875 6.859375 -2.6875 L 4.078125 -2.6875 L 4.078125 -5.484375 C 4.078125 -5.625 4.078125 -5.8125 3.875 -5.8125 C 3.671875 -5.8125 3.671875 -5.625 3.671875 -5.484375 L 3.671875 -2.6875 L 0.890625 -2.6875 C 0.75 -2.6875 0.5625 -2.6875 0.5625 -2.5 C 0.5625 -2.296875 0.75 -2.296875 0.890625 -2.296875 L 3.671875 -2.296875 L 3.671875 0.5 C 3.671875 0.640625 3.671875 0.828125 3.875 0.828125 C 4.078125 0.828125 4.078125 0.640625 4.078125 0.5 Z M 4.078125 -2.296875 "/>
</g>
<g id="glyph-2-0">
<path d="M 6.265625 -5.671875 C 6.75 -6.453125 7.171875 -6.484375 7.53125 -6.5 C 7.65625 -6.515625 7.671875 -6.671875 7.671875 -6.6875 C 7.671875 -6.765625 7.609375 -6.8125 7.53125 -6.8125 C 7.28125 -6.8125 6.984375 -6.78125 6.71875 -6.78125 C 6.390625 -6.78125 6.046875 -6.8125 5.734375 -6.8125 C 5.671875 -6.8125 5.546875 -6.8125 5.546875 -6.625 C 5.546875 -6.515625 5.625 -6.5 5.703125 -6.5 C 5.96875 -6.484375 6.15625 -6.375 6.15625 -6.171875 C 6.15625 -6.015625 6.015625 -5.796875 6.015625 -5.796875 L 2.953125 -0.921875 L 2.265625 -6.203125 C 2.265625 -6.375 2.5 -6.5 2.953125 -6.5 C 3.09375 -6.5 3.203125 -6.5 3.203125 -6.703125 C 3.203125 -6.78125 3.125 -6.8125 3.078125 -6.8125 C 2.671875 -6.8125 2.25 -6.78125 1.828125 -6.78125 C 1.65625 -6.78125 1.46875 -6.78125 1.28125 -6.78125 C 1.109375 -6.78125 0.921875 -6.8125 0.75 -6.8125 C 0.671875 -6.8125 0.5625 -6.8125 0.5625 -6.625 C 0.5625 -6.5 0.640625 -6.5 0.8125 -6.5 C 1.359375 -6.5 1.375 -6.40625 1.40625 -6.15625 L 2.1875 -0.015625 C 2.21875 0.1875 2.265625 0.21875 2.390625 0.21875 C 2.546875 0.21875 2.59375 0.171875 2.671875 0.046875 Z M 6.265625 -5.671875 "/>
</g>
<g id="glyph-2-1">
<path d="M 7.578125 -6.921875 C 7.578125 -6.953125 7.5625 -7.03125 7.46875 -7.03125 C 7.4375 -7.03125 7.421875 -7.015625 7.3125 -6.90625 L 6.625 -6.140625 C 6.53125 -6.28125 6.078125 -7.03125 4.96875 -7.03125 C 2.734375 -7.03125 0.5 -4.828125 0.5 -2.515625 C 0.5 -0.875 1.671875 0.21875 3.203125 0.21875 C 4.0625 0.21875 4.828125 -0.171875 5.359375 -0.640625 C 6.28125 -1.453125 6.453125 -2.359375 6.453125 -2.390625 C 6.453125 -2.5 6.34375 -2.5 6.328125 -2.5 C 6.265625 -2.5 6.21875 -2.46875 6.203125 -2.390625 C 6.109375 -2.109375 5.875 -1.390625 5.1875 -0.8125 C 4.5 -0.265625 3.875 -0.09375 3.359375 -0.09375 C 2.46875 -0.09375 1.40625 -0.609375 1.40625 -2.15625 C 1.40625 -2.734375 1.609375 -4.34375 2.609375 -5.515625 C 3.21875 -6.21875 4.15625 -6.71875 5.046875 -6.71875 C 6.0625 -6.71875 6.65625 -5.953125 6.65625 -4.796875 C 6.65625 -4.390625 6.625 -4.390625 6.625 -4.28125 C 6.625 -4.1875 6.734375 -4.1875 6.765625 -4.1875 C 6.890625 -4.1875 6.890625 -4.203125 6.953125 -4.390625 Z M 7.578125 -6.921875 "/>
</g>
<g id="glyph-2-2">
<path d="M 3.734375 -6.03125 C 3.8125 -6.390625 3.84375 -6.5 4.78125 -6.5 C 5.078125 -6.5 5.15625 -6.5 5.15625 -6.6875 C 5.15625 -6.8125 5.046875 -6.8125 5 -6.8125 C 4.671875 -6.8125 3.859375 -6.78125 3.53125 -6.78125 C 3.234375 -6.78125 2.5 -6.8125 2.203125 -6.8125 C 2.140625 -6.8125 2.015625 -6.8125 2.015625 -6.609375 C 2.015625 -6.5 2.109375 -6.5 2.296875 -6.5 C 2.3125 -6.5 2.5 -6.5 2.671875 -6.484375 C 2.84375 -6.453125 2.9375 -6.453125 2.9375 -6.3125 C 2.9375 -6.28125 2.9375 -6.25 2.90625 -6.125 L 1.5625 -0.78125 C 1.46875 -0.390625 1.453125 -0.3125 0.65625 -0.3125 C 0.484375 -0.3125 0.390625 -0.3125 0.390625 -0.109375 C 0.390625 0 0.484375 0 0.65625 0 L 5.28125 0 C 5.515625 0 5.515625 0 5.578125 -0.171875 L 6.375 -2.328125 C 6.40625 -2.4375 6.40625 -2.453125 6.40625 -2.46875 C 6.40625 -2.5 6.375 -2.578125 6.296875 -2.578125 C 6.203125 -2.578125 6.1875 -2.515625 6.125 -2.359375 C 5.78125 -1.453125 5.34375 -0.3125 3.625 -0.3125 L 2.6875 -0.3125 C 2.546875 -0.3125 2.515625 -0.3125 2.46875 -0.3125 C 2.359375 -0.328125 2.328125 -0.34375 2.328125 -0.421875 C 2.328125 -0.453125 2.328125 -0.46875 2.375 -0.640625 Z M 3.734375 -6.03125 "/>
</g>
<g id="glyph-2-3">
<path d="M 3.734375 -6.125 C 3.796875 -6.359375 3.828125 -6.453125 4.015625 -6.484375 C 4.109375 -6.5 4.421875 -6.5 4.625 -6.5 C 5.328125 -6.5 6.4375 -6.5 6.4375 -5.515625 C 6.4375 -5.171875 6.28125 -4.484375 5.890625 -4.09375 C 5.625 -3.84375 5.109375 -3.515625 4.203125 -3.515625 L 3.09375 -3.515625 Z M 5.171875 -3.390625 C 6.1875 -3.609375 7.359375 -4.3125 7.359375 -5.3125 C 7.359375 -6.171875 6.46875 -6.8125 5.15625 -6.8125 L 2.328125 -6.8125 C 2.125 -6.8125 2.03125 -6.8125 2.03125 -6.609375 C 2.03125 -6.5 2.125 -6.5 2.3125 -6.5 C 2.328125 -6.5 2.515625 -6.5 2.6875 -6.484375 C 2.875 -6.453125 2.953125 -6.453125 2.953125 -6.3125 C 2.953125 -6.28125 2.953125 -6.25 2.921875 -6.125 L 1.578125 -0.78125 C 1.484375 -0.390625 1.46875 -0.3125 0.671875 -0.3125 C 0.5 -0.3125 0.40625 -0.3125 0.40625 -0.109375 C 0.40625 0 0.53125 0 0.546875 0 C 0.828125 0 1.53125 -0.03125 1.796875 -0.03125 C 2.078125 -0.03125 2.796875 0 3.078125 0 C 3.15625 0 3.265625 0 3.265625 -0.203125 C 3.265625 -0.3125 3.1875 -0.3125 2.984375 -0.3125 C 2.625 -0.3125 2.34375 -0.3125 2.34375 -0.484375 C 2.34375 -0.546875 2.359375 -0.59375 2.375 -0.65625 L 3.03125 -3.296875 L 4.21875 -3.296875 C 5.125 -3.296875 5.296875 -2.734375 5.296875 -2.390625 C 5.296875 -2.25 5.21875 -1.9375 5.15625 -1.703125 C 5.09375 -1.421875 5 -1.0625 5 -0.859375 C 5 0.21875 6.203125 0.21875 6.328125 0.21875 C 7.171875 0.21875 7.53125 -0.78125 7.53125 -0.921875 C 7.53125 -1.046875 7.421875 -1.046875 7.40625 -1.046875 C 7.3125 -1.046875 7.296875 -0.984375 7.28125 -0.90625 C 7.03125 -0.171875 6.59375 0 6.375 0 C 6.046875 0 5.96875 -0.21875 5.96875 -0.609375 C 5.96875 -0.921875 6.03125 -1.421875 6.078125 -1.75 C 6.09375 -1.890625 6.109375 -2.078125 6.109375 -2.21875 C 6.109375 -2.984375 5.4375 -3.296875 5.171875 -3.390625 Z M 5.171875 -3.390625 "/>
</g>
<g id="glyph-2-4">
<path d="M 3.734375 -6.046875 C 3.8125 -6.40625 3.84375 -6.5 4.640625 -6.5 C 4.875 -6.5 4.953125 -6.5 4.953125 -6.6875 C 4.953125 -6.8125 4.84375 -6.8125 4.8125 -6.8125 C 4.515625 -6.8125 3.78125 -6.78125 3.484375 -6.78125 C 3.1875 -6.78125 2.46875 -6.8125 2.15625 -6.8125 C 2.09375 -6.8125 1.96875 -6.8125 1.96875 -6.609375 C 1.96875 -6.5 2.046875 -6.5 2.25 -6.5 C 2.65625 -6.5 2.9375 -6.5 2.9375 -6.3125 C 2.9375 -6.265625 2.9375 -6.234375 2.90625 -6.15625 L 1.5625 -0.78125 C 1.46875 -0.40625 1.453125 -0.3125 0.65625 -0.3125 C 0.421875 -0.3125 0.34375 -0.3125 0.34375 -0.109375 C 0.34375 0 0.453125 0 0.484375 0 C 0.78125 0 1.5 -0.03125 1.796875 -0.03125 C 2.09375 -0.03125 2.828125 0 3.125 0 C 3.203125 0 3.328125 0 3.328125 -0.1875 C 3.328125 -0.3125 3.25 -0.3125 3.03125 -0.3125 C 2.84375 -0.3125 2.796875 -0.3125 2.609375 -0.328125 C 2.390625 -0.34375 2.359375 -0.390625 2.359375 -0.5 C 2.359375 -0.578125 2.375 -0.65625 2.390625 -0.734375 Z M 3.734375 -6.046875 "/>
</g>
<g id="glyph-3-0">
<path d="M 3 -2.625 C 2.828125 -2.578125 2.703125 -2.4375 2.703125 -2.296875 C 2.703125 -2.125 2.84375 -2.0625 2.9375 -2.0625 C 3.015625 -2.0625 3.28125 -2.109375 3.28125 -2.46875 C 3.28125 -2.921875 2.78125 -3.078125 2.34375 -3.078125 C 1.265625 -3.078125 1.0625 -2.265625 1.0625 -2.0625 C 1.0625 -1.796875 1.21875 -1.625 1.3125 -1.546875 C 1.484375 -1.40625 1.609375 -1.375 2.09375 -1.296875 C 2.25 -1.265625 2.6875 -1.1875 2.6875 -0.84375 C 2.6875 -0.71875 2.609375 -0.453125 2.328125 -0.28125 C 2.046875 -0.125 1.703125 -0.125 1.625 -0.125 C 1.34375 -0.125 0.953125 -0.1875 0.78125 -0.421875 C 1.015625 -0.453125 1.171875 -0.625 1.171875 -0.8125 C 1.171875 -0.984375 1.046875 -1.078125 0.90625 -1.078125 C 0.703125 -1.078125 0.5 -0.90625 0.5 -0.609375 C 0.5 -0.1875 0.9375 0.0625 1.609375 0.0625 C 2.90625 0.0625 3.140625 -0.8125 3.140625 -1.078125 C 3.140625 -1.71875 2.4375 -1.84375 2.171875 -1.890625 C 2.109375 -1.90625 1.9375 -1.9375 1.890625 -1.953125 C 1.640625 -2 1.515625 -2.140625 1.515625 -2.296875 C 1.515625 -2.453125 1.640625 -2.640625 1.796875 -2.75 C 1.984375 -2.859375 2.21875 -2.875 2.34375 -2.875 C 2.484375 -2.875 2.84375 -2.859375 3 -2.625 Z M 3 -2.625 "/>
</g>
<g id="glyph-3-1">
<path d="M 5.875 -4.8125 C 5.875 -4.84375 5.859375 -4.90625 5.78125 -4.90625 C 5.734375 -4.90625 5.71875 -4.890625 5.65625 -4.8125 L 5.15625 -4.28125 C 5.09375 -4.359375 4.703125 -4.90625 3.84375 -4.90625 C 2.140625 -4.90625 0.484375 -3.40625 0.484375 -1.828125 C 0.484375 -0.6875 1.375 0.140625 2.625 0.140625 C 3 0.140625 3.671875 0.0625 4.390625 -0.546875 C 4.9375 -1.015625 5.09375 -1.609375 5.09375 -1.671875 C 5.09375 -1.765625 5.015625 -1.765625 4.96875 -1.765625 C 4.890625 -1.765625 4.875 -1.734375 4.84375 -1.65625 C 4.5625 -0.703125 3.59375 -0.109375 2.75 -0.109375 C 2 -0.109375 1.1875 -0.515625 1.1875 -1.609375 C 1.1875 -1.8125 1.234375 -2.90625 2.03125 -3.796875 C 2.515625 -4.328125 3.25 -4.640625 3.90625 -4.640625 C 4.71875 -4.640625 5.1875 -4.0625 5.1875 -3.28125 C 5.1875 -3.09375 5.171875 -3.03125 5.171875 -3 C 5.171875 -2.90625 5.265625 -2.90625 5.296875 -2.90625 C 5.40625 -2.90625 5.40625 -2.921875 5.4375 -3.0625 Z M 5.875 -4.8125 "/>
</g>
<g id="glyph-3-2">
<path d="M 2.875 -4.1875 C 2.9375 -4.4375 2.953125 -4.515625 3.59375 -4.515625 C 3.8125 -4.515625 3.875 -4.515625 3.875 -4.65625 C 3.875 -4.671875 3.875 -4.765625 3.765625 -4.765625 C 3.609375 -4.765625 3.421875 -4.75 3.25 -4.734375 C 3.078125 -4.734375 2.859375 -4.734375 2.6875 -4.734375 C 2.546875 -4.734375 2.359375 -4.734375 2.203125 -4.734375 C 2.0625 -4.734375 1.890625 -4.765625 1.75 -4.765625 C 1.71875 -4.765625 1.609375 -4.765625 1.609375 -4.609375 C 1.609375 -4.515625 1.6875 -4.515625 1.828125 -4.515625 C 1.84375 -4.515625 1.96875 -4.515625 2.09375 -4.5 C 2.25 -4.484375 2.265625 -4.46875 2.265625 -4.390625 C 2.265625 -4.390625 2.265625 -4.34375 2.234375 -4.25 L 1.296875 -0.546875 C 1.234375 -0.3125 1.21875 -0.25 0.6875 -0.25 C 0.578125 -0.25 0.484375 -0.25 0.484375 -0.109375 C 0.484375 0 0.5625 0 0.6875 0 L 4.1875 0 C 4.375 0 4.375 0 4.4375 -0.140625 C 4.5 -0.328125 5.03125 -1.671875 5.03125 -1.734375 C 5.03125 -1.75 5.015625 -1.828125 4.90625 -1.828125 C 4.828125 -1.828125 4.8125 -1.796875 4.765625 -1.6875 C 4.5 -1.03125 4.1875 -0.25 2.921875 -0.25 L 2.125 -0.25 C 1.921875 -0.25 1.90625 -0.265625 1.90625 -0.328125 C 1.90625 -0.328125 1.90625 -0.359375 1.9375 -0.46875 Z M 2.875 -4.1875 "/>
</g>
<g id="glyph-3-3">
<path d="M 3.703125 -1.859375 C 3.703125 -2.625 3.125 -3.078125 2.4375 -3.078125 C 1.40625 -3.078125 0.4375 -2.109375 0.4375 -1.15625 C 0.4375 -0.453125 0.9375 0.0625 1.703125 0.0625 C 2.703125 0.0625 3.703125 -0.84375 3.703125 -1.859375 Z M 1.703125 -0.125 C 1.359375 -0.125 1.015625 -0.34375 1.015625 -0.90625 C 1.015625 -1.1875 1.140625 -1.875 1.421875 -2.265625 C 1.71875 -2.703125 2.125 -2.875 2.4375 -2.875 C 2.8125 -2.875 3.125 -2.625 3.125 -2.109375 C 3.125 -1.9375 3.046875 -1.25 2.734375 -0.765625 C 2.46875 -0.34375 2.0625 -0.125 1.703125 -0.125 Z M 1.703125 -0.125 "/>
</g>
<g id="glyph-4-0">
<path d="M 1.984375 -3.171875 C 1.984375 -3.3125 1.96875 -3.3125 1.796875 -3.3125 C 1.453125 -3 0.890625 -3 0.796875 -3 L 0.71875 -3 L 0.71875 -2.78125 L 0.796875 -2.78125 C 0.90625 -2.78125 1.234375 -2.796875 1.53125 -2.921875 L 1.53125 -0.421875 C 1.53125 -0.28125 1.53125 -0.21875 1 -0.21875 L 0.75 -0.21875 L 0.75 0 C 1.015625 -0.015625 1.46875 -0.015625 1.75 -0.015625 C 2.046875 -0.015625 2.484375 -0.015625 2.765625 0 L 2.765625 -0.21875 L 2.515625 -0.21875 C 1.984375 -0.21875 1.984375 -0.28125 1.984375 -0.421875 Z M 1.984375 -3.171875 "/>
</g>
<g id="glyph-4-1">
<path d="M 2.9375 -0.96875 L 2.71875 -0.96875 C 2.71875 -0.875 2.65625 -0.5625 2.578125 -0.515625 C 2.546875 -0.484375 2.125 -0.484375 2.046875 -0.484375 L 1.078125 -0.484375 C 1.40625 -0.71875 1.765625 -1 2.0625 -1.203125 C 2.515625 -1.515625 2.9375 -1.796875 2.9375 -2.328125 C 2.9375 -2.96875 2.328125 -3.3125 1.625 -3.3125 C 0.953125 -3.3125 0.453125 -2.9375 0.453125 -2.4375 C 0.453125 -2.1875 0.671875 -2.140625 0.75 -2.140625 C 0.875 -2.140625 1.03125 -2.234375 1.03125 -2.4375 C 1.03125 -2.609375 0.90625 -2.71875 0.75 -2.71875 C 0.890625 -2.953125 1.1875 -3.09375 1.515625 -3.09375 C 2 -3.09375 2.40625 -2.8125 2.40625 -2.328125 C 2.40625 -1.90625 2.109375 -1.578125 1.734375 -1.265625 L 0.515625 -0.234375 C 0.46875 -0.1875 0.453125 -0.1875 0.453125 -0.15625 L 0.453125 0 L 2.765625 0 Z M 2.9375 -0.96875 "/>
</g>
</g>
</defs>
<path fill="none" stroke-width="0.3985" stroke-linecap="butt" stroke-linejoin="miter" stroke="rgb(0%, 0%, 0%)" stroke-opacity="1" stroke-miterlimit="10" d="M 255.119625 106.300813 L 255.119625 104.031281 M 255.119625 80.222688 L 255.119625 77.953156 " transform="matrix(1, 0, 0, -1, -222.854, 199.043)"/>
<path fill="none" stroke-width="0.797" stroke-linecap="butt" stroke-linejoin="miter" stroke="rgb(0%, 0%, 0%)" stroke-opacity="1" stroke-miterlimit="10" d="M 267.025875 92.128938 C 267.025875 98.703156 261.69775 104.031281 255.119625 104.031281 C 248.545406 104.031281 243.217281 98.703156 243.217281 92.128938 C 243.217281 85.550813 248.545406 80.222688 255.119625 80.222688 C 261.69775 80.222688 267.025875 85.550813 267.025875 92.128938 Z M 267.025875 92.128938 " transform="matrix(1, 0, 0, -1, -222.854, 199.043)"/>
<g fill="rgb(0%, 0%, 0%)" fill-opacity="1">
<use xlink:href="#glyph-0-0" x="28.39" y="114.421"/>
</g>
<g fill="rgb(0%, 0%, 0%)" fill-opacity="1">
<use xlink:href="#glyph-1-0" x="28.39" y="104.395"/>
</g>
<g fill="rgb(0%, 0%, 0%)" fill-opacity="1">
<use xlink:href="#glyph-2-0" x="3.601" y="109.062"/>
</g>
<g fill="rgb(0%, 0%, 0%)" fill-opacity="1">
<use xlink:href="#glyph-3-0" x="9.413" y="110.556"/>
</g>
<g fill="rgb(0%, 0%, 0%)" fill-opacity="1">
<use xlink:href="#glyph-4-0" x="13.173" y="111.553"/>
</g>
<path fill="none" stroke-width="0.3985" stroke-linecap="butt" stroke-linejoin="miter" stroke="rgb(0%, 0%, 0%)" stroke-opacity="1" stroke-miterlimit="10" d="M 255.119625 148.820344 L 255.119625 146.554719 M 255.119625 122.742219 L 255.119625 120.472688 " transform="matrix(1, 0, 0, -1, -222.854, 199.043)"/>
<path fill="none" stroke-width="0.797" stroke-linecap="butt" stroke-linejoin="miter" stroke="rgb(0%, 0%, 0%)" stroke-opacity="1" stroke-miterlimit="10" d="M 267.025875 134.648469 C 267.025875 141.222688 261.69775 146.554719 255.119625 146.554719 C 248.545406 146.554719 243.217281 141.222688 243.217281 134.648469 C 243.217281 128.070344 248.545406 122.742219 255.119625 122.742219 C 261.69775 122.742219 267.025875 128.070344 267.025875 134.648469 Z M 267.025875 134.648469 " transform="matrix(1, 0, 0, -1, -222.854, 199.043)"/>
<path fill="none" stroke-width="0.797" stroke-linecap="butt" stroke-linejoin="miter" stroke="rgb(0%, 0%, 0%)" stroke-opacity="1" stroke-miterlimit="10" d="M 249.1665 134.648469 C 250.139156 136.171906 251.068844 137.625031 252.143063 137.625031 C 253.221188 137.625031 254.150875 136.171906 255.119625 134.648469 C 256.092281 133.125031 257.021969 131.671906 258.096188 131.671906 C 259.174313 131.671906 260.104 133.125031 261.07275 134.648469 " transform="matrix(1, 0, 0, -1, -222.854, 199.043)"/>
<g fill="rgb(0%, 0%, 0%)" fill-opacity="1">
<use xlink:href="#glyph-2-0" x="3.601" y="66.542"/>
</g>
<g fill="rgb(0%, 0%, 0%)" fill-opacity="1">
<use xlink:href="#glyph-3-0" x="9.413" y="68.037"/>
</g>
<g fill="rgb(0%, 0%, 0%)" fill-opacity="1">
<use xlink:href="#glyph-4-1" x="13.173" y="69.033"/>
</g>
<path fill="none" stroke-width="0.3985" stroke-linecap="butt" stroke-linejoin="miter" stroke="rgb(0%, 0%, 0%)" stroke-opacity="1" stroke-miterlimit="10" d="M 255.119625 56.695344 L 255.119625 63.781281 M 255.119625 63.781281 L 255.119625 70.867219 " transform="matrix(1, 0, 0, -1, -222.854, 199.043)"/>
<path fill="none" stroke-width="0.3985" stroke-linecap="butt" stroke-linejoin="miter" stroke="rgb(0%, 0%, 0%)" stroke-opacity="1" stroke-miterlimit="10" d="M 255.119625 155.906281 L 255.119625 162.992219 M 255.119625 162.992219 L 255.119625 170.082063 " transform="matrix(1, 0, 0, -1, -222.854, 199.043)"/>
<path fill="none" stroke-width="0.3985" stroke-linecap="butt" stroke-linejoin="miter" stroke="rgb(0%, 0%, 0%)" stroke-opacity="1" stroke-miterlimit="10" d="M 255.119625 155.906281 L 255.119625 152.363313 M 255.119625 152.363313 L 255.119625 148.820344 " transform="matrix(1, 0, 0, -1, -222.854, 199.043)"/>
<path fill="none" stroke-width="0.3985" stroke-linecap="butt" stroke-linejoin="miter" stroke="rgb(0%, 0%, 0%)" stroke-opacity="1" stroke-miterlimit="10" d="M 255.119625 77.953156 L 255.119625 74.410188 M 255.119625 74.410188 L 255.119625 70.867219 " transform="matrix(1, 0, 0, -1, -222.854, 199.043)"/>
<path fill="none" stroke-width="0.3985" stroke-linecap="butt" stroke-linejoin="miter" stroke="rgb(0%, 0%, 0%)" stroke-opacity="1" stroke-miterlimit="10" d="M 255.119625 120.472688 L 255.119625 113.38675 M 255.119625 113.38675 L 255.119625 106.300813 " transform="matrix(1, 0, 0, -1, -222.854, 199.043)"/>
<path fill="none" stroke-width="0.3985" stroke-linecap="butt" stroke-linejoin="miter" stroke="rgb(0%, 0%, 0%)" stroke-opacity="1" stroke-miterlimit="10" d="M 255.119625 56.695344 L 311.814938 56.695344 M 311.814938 56.695344 L 368.51025 56.695344 " transform="matrix(1, 0, 0, -1, -222.854, 199.043)"/>
<path fill="none" stroke-width="0.3985" stroke-linecap="butt" stroke-linejoin="miter" stroke="rgb(0%, 0%, 0%)" stroke-opacity="1" stroke-miterlimit="10" d="M 368.51025 170.082063 L 368.51025 117.3555 M 368.51025 109.418 L 368.51025 56.695344 " transform="matrix(1, 0, 0, -1, -222.854, 199.043)"/>
<path fill="none" stroke-width="0.797" stroke-linecap="butt" stroke-linejoin="miter" stroke="rgb(0%, 0%, 0%)" stroke-opacity="1" stroke-miterlimit="10" d="M 380.412594 109.418 C 376.533688 111.652375 372.818844 113.785188 368.51025 113.785188 C 364.19775 113.785188 360.482906 111.652375 356.604 109.418 " transform="matrix(1, 0, 0, -1, -222.854, 199.043)"/>
<path fill="none" stroke-width="0.797" stroke-linecap="butt" stroke-linejoin="miter" stroke="rgb(0%, 0%, 0%)" stroke-opacity="1" stroke-miterlimit="10" d="M 380.412594 117.3555 L 356.604 117.3555 " transform="matrix(1, 0, 0, -1, -222.854, 199.043)"/>
<path fill="none" stroke-width="0.3985" stroke-linecap="butt" stroke-linejoin="miter" stroke="rgb(0%, 0%, 0%)" stroke-opacity="1" stroke-miterlimit="10" d="M 368.51025 113.785188 L 368.51025 109.418 " transform="matrix(1, 0, 0, -1, -222.854, 199.043)"/>
<g fill="rgb(0%, 0%, 0%)" fill-opacity="1">
<use xlink:href="#glyph-2-1" x="123.112" y="87.802"/>
</g>
<g fill="rgb(0%, 0%, 0%)" fill-opacity="1">
<use xlink:href="#glyph-1-0" x="153.786" y="74.131"/>
</g>
<g fill="rgb(0%, 0%, 0%)" fill-opacity="1">
<use xlink:href="#glyph-0-0" x="153.786" y="102.165"/>
</g>
<g fill="rgb(0%, 0%, 0%)" fill-opacity="1">
<use xlink:href="#glyph-2-0" x="168.875" y="88.314"/>
</g>
<g fill="rgb(0%, 0%, 0%)" fill-opacity="1">
<use xlink:href="#glyph-3-1" x="174.686" y="89.808"/>
</g>
<path fill="none" stroke-width="0.3985" stroke-linecap="butt" stroke-linejoin="miter" stroke="rgb(0%, 0%, 0%)" stroke-opacity="1" stroke-miterlimit="10" d="M 255.119625 170.082063 L 299.908688 170.082063 M 323.721188 170.082063 L 368.51025 170.082063 " transform="matrix(1, 0, 0, -1, -222.854, 199.043)"/>
<path fill="none" stroke-width="0.797" stroke-linecap="butt" stroke-linejoin="bevel" stroke="rgb(0%, 0%, 0%)" stroke-opacity="1" stroke-miterlimit="10" d="M 299.51025 169.921906 C 299.51025 173.210969 301.146969 175.875031 303.162594 175.875031 C 305.178219 175.875031 306.814938 173.210969 306.814938 169.921906 C 306.814938 168.277375 306.146969 166.945344 305.326656 166.945344 C 304.502438 166.945344 303.838375 168.277375 303.838375 169.921906 C 303.838375 173.210969 305.471188 175.875031 307.486813 175.875031 C 309.506344 175.875031 311.139156 173.210969 311.139156 169.921906 C 311.139156 168.277375 310.475094 166.945344 309.650875 166.945344 C 308.830563 166.945344 308.162594 168.277375 308.162594 169.921906 C 308.162594 173.210969 309.799313 175.875031 311.814938 175.875031 C 313.830563 175.875031 315.467281 173.210969 315.467281 169.921906 C 315.467281 168.277375 314.799313 166.945344 313.979 166.945344 C 313.154781 166.945344 312.490719 168.277375 312.490719 169.921906 C 312.490719 173.210969 314.123531 175.875031 316.143063 175.875031 C 318.158688 175.875031 319.7915 173.210969 319.7915 169.921906 C 319.7915 168.277375 319.127438 166.945344 318.303219 166.945344 C 317.482906 166.945344 316.814938 168.277375 316.814938 169.921906 C 316.814938 173.210969 318.451656 175.875031 320.467281 175.875031 C 322.482906 175.875031 324.119625 173.210969 324.119625 169.921906 " transform="matrix(1, 0, 0, -1, -222.854, 199.043)"/>
<g fill="rgb(0%, 0%, 0%)" fill-opacity="1">
<use xlink:href="#glyph-2-2" x="85.567" y="42.215"/>
</g>
<g fill="rgb(0%, 0%, 0%)" fill-opacity="1">
<use xlink:href="#glyph-1-0" x="64.716" y="19.998"/>
</g>
<g fill="rgb(0%, 0%, 0%)" fill-opacity="1">
<use xlink:href="#glyph-0-0" x="105.449" y="19.998"/>
</g>
<g fill="rgb(0%, 0%, 0%)" fill-opacity="1">
<use xlink:href="#glyph-2-0" x="83.069" y="10.793"/>
</g>
<g fill="rgb(0%, 0%, 0%)" fill-opacity="1">
<use xlink:href="#glyph-3-2" x="88.881" y="12.287"/>
</g>
<path fill="none" stroke-width="0.3985" stroke-linecap="butt" stroke-linejoin="miter" stroke="rgb(0%, 0%, 0%)" stroke-opacity="1" stroke-miterlimit="10" d="M 481.896969 56.695344 L 481.896969 97.51175 M 481.896969 129.26175 L 481.896969 170.082063 " transform="matrix(1, 0, 0, -1, -222.854, 199.043)"/>
<path fill="none" stroke-width="0.797" stroke-linecap="butt" stroke-linejoin="bevel" stroke="rgb(0%, 0%, 0%)" stroke-opacity="1" stroke-miterlimit="10" d="M 481.896969 97.113313 L 475.943844 100.160188 L 487.850094 105.44925 L 475.943844 110.742219 L 487.850094 116.031281 L 475.943844 121.32425 L 487.850094 126.617219 L 481.896969 129.660188 " transform="matrix(1, 0, 0, -1, -222.854, 199.043)"/>
<g fill="rgb(0%, 0%, 0%)" fill-opacity="1">
<use xlink:href="#glyph-2-3" x="267.192" y="87.802"/>
</g>
<g fill="rgb(0%, 0%, 0%)" fill-opacity="1">
<use xlink:href="#glyph-0-0" x="241.563" y="111.689"/>
</g>
<g fill="rgb(0%, 0%, 0%)" fill-opacity="1">
<use xlink:href="#glyph-1-0" x="241.563" y="64.606"/>
</g>
<g fill="rgb(0%, 0%, 0%)" fill-opacity="1">
<use xlink:href="#glyph-2-0" x="230.529" y="88.314"/>
</g>
<g fill="rgb(0%, 0%, 0%)" fill-opacity="1">
<use xlink:href="#glyph-3-3" x="236.341" y="89.808"/>
</g>
<path fill="none" stroke-width="0.3985" stroke-linecap="butt" stroke-linejoin="miter" stroke="rgb(0%, 0%, 0%)" stroke-opacity="1" stroke-miterlimit="10" d="M 368.51025 56.695344 L 425.201656 56.695344 M 425.201656 56.695344 L 481.896969 56.695344 " transform="matrix(1, 0, 0, -1, -222.854, 199.043)"/>
<path fill="none" stroke-width="0.3985" stroke-linecap="butt" stroke-linejoin="miter" stroke="rgb(0%, 0%, 0%)" stroke-opacity="1" stroke-miterlimit="10" d="M 368.51025 170.082063 L 425.201656 170.082063 M 425.201656 170.082063 L 481.896969 170.082063 " transform="matrix(1, 0, 0, -1, -222.854, 199.043)"/>
<path fill="none" stroke-width="0.59776" stroke-linecap="butt" stroke-linejoin="miter" stroke="rgb(0%, 0%, 0%)" stroke-opacity="1" stroke-miterlimit="10" d="M 340.162594 177.168 L 364.38525 177.168 " transform="matrix(1, 0, 0, -1, -222.854, 199.043)"/>
<path fill-rule="nonzero" fill="rgb(0%, 0%, 0%)" fill-opacity="1" d="M 145.65625 21.875 C 144.433594 21.644531 142.445312 20.957031 141.070312 20.15625 L 141.070312 23.59375 C 142.445312 22.792969 144.433594 22.105469 145.65625 21.875 "/>
<g fill="rgb(0%, 0%, 0%)" fill-opacity="1">
<use xlink:href="#glyph-2-4" x="126.305" y="17.448"/>
</g>
<g fill="rgb(0%, 0%, 0%)" fill-opacity="1">
<use xlink:href="#glyph-3-2" x="130.684" y="18.942"/>
</g>
<path fill="none" stroke-width="0.59776" stroke-linecap="butt" stroke-linejoin="miter" stroke="rgb(0%, 0%, 0%)" stroke-opacity="1" stroke-miterlimit="10" d="M 375.596188 162.992219 L 375.596188 138.773469 " transform="matrix(1, 0, 0, -1, -222.854, 199.043)"/>
<path fill-rule="nonzero" fill="rgb(0%, 0%, 0%)" fill-opacity="1" d="M 152.742188 64.394531 C 152.96875 63.171875 153.65625 61.1875 154.460938 59.8125 L 151.023438 59.8125 C 151.824219 61.1875 152.511719 63.171875 152.742188 64.394531 "/>
<g fill="rgb(0%, 0%, 0%)" fill-opacity="1">
<use xlink:href="#glyph-2-4" x="154.283" y="52.881"/>
</g>
<g fill="rgb(0%, 0%, 0%)" fill-opacity="1">
<use xlink:href="#glyph-3-1" x="158.662" y="54.375"/>
</g>
<path fill="none" stroke-width="0.59776" stroke-linecap="butt" stroke-linejoin="miter" stroke="rgb(0%, 0%, 0%)" stroke-opacity="1" stroke-miterlimit="10" d="M 488.982906 162.992219 L 488.982906 138.773469 " transform="matrix(1, 0, 0, -1, -222.854, 199.043)"/>
<path fill-rule="nonzero" fill="rgb(0%, 0%, 0%)" fill-opacity="1" d="M 266.128906 64.394531 C 266.359375 63.171875 267.046875 61.1875 267.847656 59.8125 L 264.410156 59.8125 C 265.210938 61.1875 265.898438 63.171875 266.128906 64.394531 "/>
<g fill="rgb(0%, 0%, 0%)" fill-opacity="1">
<use xlink:href="#glyph-2-4" x="268.804" y="52.881"/>
</g>
<g fill="rgb(0%, 0%, 0%)" fill-opacity="1">
<use xlink:href="#glyph-3-3" x="273.183" y="54.375"/>
</g>
</svg>
